<?xml version="1.0" encoding="UTF-8"?>
<!-- Generated by Pixelmator Pro 3.6.13 -->
<svg width="128" height="128" viewBox="0 0 128 128" xmlns="http://www.w3.org/2000/svg">
    <path id="path1" fill="#000000" fill-rule="evenodd" stroke="none" d="M 90.362 106.070496 C 90.584 104.33149 90.917007 102.87001 91.361008 101.686005 C 91.953003 99.835991 91.953003 97.986008 91.361008 96.136002 C 90.768997 94.285988 89.548019 92.584007 87.697998 91.029999 C 85.255997 89.03199 82.703018 88.772995 80.039001 90.252998 C 79.225006 90.696999 78.577499 90.992996 78.096497 91.140999 C 77.615509 91.289004 77.116013 91.400004 76.598007 91.473999 C 72.601982 91.029999 68.088028 90.863503 63.056 90.974503 C 58.023975 91.085503 51.919037 91.473999 44.741001 92.139999 C 44.000996 92.213997 43.446003 92.177002 43.076 92.028999 C 42.705997 91.880997 42.225002 91.622002 41.632999 91.251999 C 40.374992 90.437996 38.636009 90.659996 36.416 91.917999 C 35.305992 92.510002 34.547501 93.231499 34.140499 94.082497 C 33.733498 94.933502 33.604 96.431992 33.751999 98.578003 C 33.900002 101.094009 34.1035 103.295486 34.362499 105.182495 C 34.621502 107.069504 34.935997 108.752991 35.306 110.233002 C 35.676003 111.713013 36.083 113.026489 36.527 114.1735 C 36.971001 115.320511 37.451996 116.411995 37.970001 117.447998 C 38.784004 118.780006 39.523998 119.630997 40.189999 120.000999 C 40.856003 120.371002 41.928993 120.518997 43.409 120.445 C 44.149002 120.371002 44.814999 120.204498 45.407001 119.945496 C 45.999004 119.686501 46.368999 119.261002 46.516998 118.668999 C 46.813 118.151001 47.0905 117.818001 47.349499 117.669998 C 47.608501 117.522003 48.070995 117.485001 48.737 117.558998 C 54.287029 117.929001 58.874981 118.1325 62.500999 118.169495 C 66.127014 118.206497 69.012985 118.076996 71.158997 117.780998 C 73.00901 117.558998 74.3965 117.558998 75.321503 117.780998 C 76.246506 118.003006 77.227005 118.409996 78.263 119.001999 C 79.151001 119.742004 80.279495 120.112 81.648499 120.112 C 83.017517 120.112 84.478989 119.483002 86.033005 118.224998 C 86.847015 117.558998 87.697998 116.504509 88.585999 115.061501 C 89.474014 113.618492 89.917999 112.00901 89.917999 110.233002 C 89.992004 109.196991 90.139999 107.809509 90.362 106.070496 Z M 78.485001 97.912003 C 78.929001 98.281998 79.225006 98.873993 79.373001 99.688004 C 79.373001 100.724007 79.354507 102.074493 79.317505 103.739502 C 79.280502 105.40451 79.188004 106.681 79.040009 107.569 C 78.891998 108.753006 78.485001 109.585495 77.819 110.066498 C 77.153 110.547501 75.784012 110.750999 73.711998 110.677002 C 71.565987 110.677002 69.58651 110.695496 67.773499 110.732498 C 65.960495 110.769501 64.09201 110.824997 62.167999 110.899002 C 60.243992 110.973 58.172012 111.046997 55.952 111.121002 C 53.731987 111.195 51.179016 111.268997 48.292999 111.343002 C 47.108994 111.417 46.350502 111.324501 46.017502 111.065498 C 45.684498 110.806503 45.444 110.159004 45.296001 109.123001 C 45.147999 108.160995 45.018501 106.866013 44.907501 105.237999 C 44.796501 103.609993 44.703999 102.278 44.630001 101.242004 C 44.407997 99.983994 44.407997 99.169998 44.630001 98.800003 C 44.852001 98.429993 45.554993 98.171005 46.738998 98.022995 C 50.73502 97.800995 54.194485 97.634506 57.1175 97.523499 C 60.040516 97.412498 62.593491 97.338501 64.776505 97.301498 C 66.959511 97.264496 68.86499 97.246002 70.492996 97.246002 C 72.12101 97.246002 73.674995 97.283005 75.154999 97.356995 C 76.931015 97.356995 78.041 97.542 78.485001 97.912003 Z M 114.449005 85.369003 C 115.189011 84.406998 116.076996 83.001007 117.113007 81.151001 C 117.483002 80.410995 117.538498 79.874504 117.27951 79.541496 C 117.020508 79.208496 116.225006 78.857002 114.893005 78.487 C 109.564972 77.376991 104.699524 76.267006 100.296509 75.156998 C 95.893478 74.046997 91.78653 72.937004 87.97551 71.827003 C 84.16449 70.716995 80.538528 69.551506 77.097504 68.330498 C 73.656487 67.109497 70.234016 65.833008 66.830002 64.500999 C 66.237991 64.278999 65.9235 63.890503 65.886505 63.335503 C 65.849503 62.780495 66.052994 61.763008 66.497002 60.282997 C 66.700615 59.697617 66.825447 59.142876 66.87149 58.618774 C 67.575157 58.24559 68.319 57.83033 69.102997 57.373001 C 70.219009 56.567001 71.598495 55.683502 73.241501 54.722504 C 74.884506 53.76149 76.480988 52.847 78.030998 51.979004 C 78.589005 51.668999 79.054001 51.483002 79.426003 51.421005 C 79.798004 51.359001 80.263 51.483002 80.820999 51.792999 C 81.503006 52.102997 82.215996 52.428497 82.959999 52.769501 C 83.704002 53.110504 84.262001 53.343002 84.634003 53.466995 C 85.688004 53.839005 86.757492 53.994003 87.842499 53.931999 C 88.927505 53.869995 89.686996 53.591003 90.121002 53.095001 C 91.361008 51.668991 90.958008 50.057007 88.912003 48.259003 C 86.245987 45.716988 83.254517 43.407509 79.9375 41.330505 C 76.620483 39.253494 73.567017 37.688004 70.777 36.634003 C 68.978989 35.951996 67.677002 35.641998 66.871002 35.703995 C 66.064995 35.765999 65.507004 36.044998 65.196999 36.541 C 64.390991 37.905006 64.576996 39.268997 65.755005 40.632996 C 66.313004 41.315002 66.963997 42.012497 67.708 42.725494 C 68.452003 43.438507 69.041 43.949997 69.474998 44.259995 C 70.529007 45.06601 71.086998 45.685997 71.149002 46.119995 C 71.210999 46.554001 70.994003 47.018997 70.498001 47.514999 C 67.39798 50.305016 64.143021 51.854996 60.733002 52.165001 C 57.322983 52.475006 54.037014 51.638008 50.875 49.653999 C 49.634995 48.909996 48.844501 48.05751 48.503502 47.096497 C 48.162498 46.135498 48.209 45.221008 48.643002 44.352997 C 49.077003 43.422997 49.898495 42.400009 51.107498 41.283997 C 52.316505 40.167999 54.12999 38.959007 56.548 37.656998 C 58.84201 36.354996 60.608994 35.053009 61.848999 33.750999 C 63.089005 32.44899 63.925999 31.209007 64.360001 30.030998 C 64.794006 28.852997 64.887001 27.783508 64.639 26.822502 C 64.390999 25.861496 63.895004 25.133003 63.151001 24.637001 C 61.538994 23.458992 60.066505 22.962997 58.733501 23.149002 C 57.400494 23.334999 56.300003 24.233994 55.431999 25.846001 C 54.439995 27.706009 53.401505 29.395493 52.316502 30.914505 C 51.231495 32.433502 49.914009 33.936996 48.363998 35.425003 C 46.813992 36.91301 44.95401 38.416489 42.784 39.935501 C 40.613991 41.454506 38.010017 43.112991 34.972 44.910995 C 33.173988 46.027008 32.1045 47.251495 31.7635 48.584503 C 31.422499 49.917511 31.840994 51.110992 33.018997 52.165001 C 33.701004 52.785004 34.274498 53.141495 34.739502 53.234497 C 35.204502 53.327499 35.994995 53.25 37.111 53.001999 C 38.165005 52.753998 39.342995 52.753998 40.645 53.001999 C 41.947006 53.25 43.403992 53.838997 45.015999 54.768997 C 48.240017 56.753006 50.890491 58.240997 52.967499 59.233002 C 53.164032 59.326866 53.358624 59.416985 53.551273 59.503357 C 53.46405 59.64975 53.376293 59.79863 53.287998 59.949997 C 52.029995 62.170013 50.087513 64.315987 47.460499 66.388 C 44.833488 68.460007 41.744019 70.346992 38.192001 72.049004 C 33.603977 74.195007 29.219521 75.896996 25.0385 77.154999 C 20.857479 78.41301 16.65802 79.337997 12.440001 79.93 C 11.255994 80.078003 10.497501 80.318497 10.1645 80.651497 C 9.831498 80.984505 9.738999 81.483994 9.887 82.150002 C 10.405003 84.888016 11.884988 86.811996 14.327 87.921997 C 16.769012 89.032005 20.024979 88.958008 24.094999 87.699997 C 25.797009 87.181999 27.443493 86.627007 29.0345 86.035004 C 30.625507 85.443001 32.30899 84.721504 34.084999 83.870499 C 35.861008 83.019493 37.821991 82.020508 39.967999 80.873497 C 42.11401 79.726494 44.592987 78.339005 47.404999 76.710999 C 50.217014 75.082993 52.62199 73.603004 54.619999 72.271004 C 56.618011 70.938995 58.282993 69.755005 59.615002 68.719002 C 59.985001 68.497002 60.391998 68.404503 60.835999 68.441498 C 61.280003 68.4785 62.056995 68.792999 63.167 69.385002 C 69.753036 72.567017 75.913483 75.619484 81.648499 78.542503 C 87.38353 81.465515 92.322983 84.29599 96.46701 87.033997 C 99.205017 88.958008 102.053986 89.919998 105.014008 89.919998 C 107.974014 89.919998 110.378998 89.180008 112.229004 87.699997 C 112.969009 87.107994 113.709 86.331001 114.449005 85.369003 Z M 79.595001 85.369003 C 81.371017 84.777 82.184998 83.630005 82.037003 81.928001 C 81.962997 81.335999 81.778 80.947502 81.48201 80.762497 C 81.186005 80.577499 80.557007 80.411003 79.595001 80.263 C 75.672989 79.966995 72.269012 79.763504 69.382996 79.652496 C 66.496986 79.541496 64.036514 79.486 62.001499 79.486 C 59.966492 79.486 58.320007 79.523003 57.062 79.597 C 55.803993 79.670998 54.805004 79.781998 54.064999 79.93 C 52.880993 80.300003 51.641506 80.522003 50.3465 80.596001 C 49.051495 80.669998 48.108002 80.669998 47.515999 80.596001 C 46.405994 80.596001 45.037006 81.039993 43.409 81.928001 C 42.446995 82.520004 41.744003 83.019501 41.299999 83.426498 C 40.855999 83.833504 40.597 84.184998 40.522999 84.481003 C 40.449001 84.777 40.522999 85.072998 40.744999 85.369003 C 40.967003 85.665001 41.299999 85.960999 41.743999 86.257004 C 42.928005 87.219002 44.333992 87.625999 45.962002 87.477997 C 47.072006 87.181999 49.587982 87.033997 53.509998 87.033997 C 60.244034 87.181999 65.849472 87.108002 70.3265 86.811996 C 74.803528 86.515999 77.89299 86.035004 79.595001 85.369003 Z M 106.163498 28.124496 C 106.814507 26.977493 107.294998 25.474007 107.605003 23.613998 C 107.729004 22.993996 107.636002 22.5755 107.325996 22.358498 C 107.015999 22.141502 106.396004 21.971001 105.466003 21.847 C 100.195976 21.412994 95.62352 20.762001 91.748497 19.893997 C 87.873482 19.025993 84.587517 18.065002 81.890503 17.011002 C 79.193489 15.956993 77.070007 14.841003 75.520004 13.663002 C 73.969994 12.484993 72.885002 11.369003 72.264999 10.315002 C 71.955002 9.819 71.536499 9.369499 71.009499 8.966499 C 70.482498 8.563499 69.9245 8.268997 69.335495 8.083 C 68.746498 7.896996 68.173004 7.804001 67.615005 7.804001 C 67.056992 7.804001 66.592003 7.959 66.220001 8.268997 C 65.785995 8.640999 65.460503 9.136993 65.2435 9.757004 C 65.026505 10.377007 64.917999 11.028 64.917999 11.709999 C 64.917999 12.392006 65.026505 13.042999 65.2435 13.663002 C 65.460503 14.283005 65.817001 14.778999 66.313004 15.151001 C 66.684998 15.460999 67.056999 15.739998 67.429001 15.987999 C 67.801003 16.236 68.219498 16.530495 68.684502 16.871498 C 69.149506 17.212502 69.692001 17.599998 70.311996 18.033997 C 70.932007 18.468002 71.737991 19.025993 72.729996 19.708 C 73.970001 20.576004 75.36499 21.521492 76.915001 22.544502 C 78.465012 23.567505 80.030495 24.590492 81.611504 25.613503 C 83.192505 26.636505 84.72699 27.597496 86.214996 28.496498 C 87.703011 29.395508 89.004997 30.093002 90.121002 30.589005 C 91.671005 31.271004 93.019493 31.797997 94.166496 32.169998 C 95.313507 32.542007 96.398499 32.7435 97.421501 32.774506 C 98.444504 32.805496 99.436493 32.666 100.397499 32.356003 C 101.358505 32.045998 102.396996 31.550003 103.513 30.867996 C 104.629005 30.185997 105.512497 29.271507 106.163498 28.124496 Z M 50.177502 18.824501 C 51.634506 17.305496 52.889996 15.864006 53.944 14.5 C 54.564003 13.693993 54.812 12.919006 54.688 12.175003 C 54.563999 11.431 54.254002 10.811005 53.757999 10.315002 C 53.261997 9.819 52.626503 9.570999 51.851501 9.570999 C 51.076496 9.570999 50.441002 9.819 49.945 10.315002 C 48.518993 11.803009 46.705513 13.19799 44.504501 14.5 C 42.30349 15.80201 39.901012 16.917992 37.297001 17.848 C 34.692986 18.778008 31.980515 19.475494 29.1595 19.940498 C 26.338486 20.405502 23.595013 20.576004 20.929001 20.452003 C 19.502993 20.328003 18.588501 20.467499 18.185499 20.870499 C 17.782497 21.273499 17.735998 22.094994 18.046 23.334999 C 18.356001 24.637009 19.006996 25.752998 19.999001 26.682999 C 20.991005 27.613007 22.153494 28.325996 23.4865 28.821999 C 24.819508 29.318001 26.260992 29.612503 27.811001 29.705505 C 29.361008 29.7985 30.848993 29.690002 32.275002 29.380005 C 34.755013 28.821999 37.09549 27.985008 39.296501 26.869003 C 41.497513 25.752991 43.49699 24.513008 45.294998 23.149002 C 47.09301 21.784996 48.720493 20.343506 50.177502 18.824501 Z"/>
</svg>
